<mxfile host="app.diagrams.net" modified="2021-10-31T16:39:00.599Z" agent="5.0 (Windows NT 10.0; Win64; x64) AppleWebKit/537.36 (KHTML, like Gecko) Chrome/94.0.4606.81 Safari/537.36" etag="QTObpPyqmzzVMyLrgXiq" version="15.6.3" type="github">
  <diagram id="bA1fCBD8PMR81sRgOeHo" name="Page-1">
    <mxGraphModel dx="1038" dy="547" grid="1" gridSize="10" guides="1" tooltips="1" connect="1" arrows="1" fold="1" page="1" pageScale="1" pageWidth="827" pageHeight="1169" math="0" shadow="0">
      <root>
        <mxCell id="0" />
        <mxCell id="1" parent="0" />
        <mxCell id="uXTuELQXPpplIUTR7Xs5-1" value="Auth service" style="rounded=0;whiteSpace=wrap;html=1;" vertex="1" parent="1">
          <mxGeometry x="130" y="60" width="120" height="90" as="geometry" />
        </mxCell>
        <mxCell id="uXTuELQXPpplIUTR7Xs5-2" value="Task service" style="rounded=0;whiteSpace=wrap;html=1;" vertex="1" parent="1">
          <mxGeometry x="330" y="280" width="120" height="90" as="geometry" />
        </mxCell>
        <mxCell id="uXTuELQXPpplIUTR7Xs5-3" value="Accounting service" style="rounded=0;whiteSpace=wrap;html=1;" vertex="1" parent="1">
          <mxGeometry x="500" y="60" width="120" height="90" as="geometry" />
        </mxCell>
        <mxCell id="uXTuELQXPpplIUTR7Xs5-5" value="" style="html=1;shadow=0;dashed=0;align=center;verticalAlign=middle;shape=mxgraph.arrows2.arrow;dy=0.6;dx=40;notch=0;" vertex="1" parent="1">
          <mxGeometry x="330" y="100" width="100" height="20" as="geometry" />
        </mxCell>
        <mxCell id="uXTuELQXPpplIUTR7Xs5-6" value="CUD events for Users" style="text;html=1;align=center;verticalAlign=middle;resizable=0;points=[];autosize=1;strokeColor=none;fillColor=none;" vertex="1" parent="1">
          <mxGeometry x="315" y="80" width="130" height="20" as="geometry" />
        </mxCell>
        <mxCell id="uXTuELQXPpplIUTR7Xs5-8" value="" style="html=1;shadow=0;dashed=0;align=center;verticalAlign=middle;shape=mxgraph.arrows2.arrow;dy=0.6;dx=40;notch=0;rotation=60;" vertex="1" parent="1">
          <mxGeometry x="240" y="200" width="100" height="20" as="geometry" />
        </mxCell>
        <mxCell id="uXTuELQXPpplIUTR7Xs5-9" value="CUD events for Users" style="text;html=1;align=center;verticalAlign=middle;resizable=0;points=[];autosize=1;strokeColor=none;fillColor=none;" vertex="1" parent="1">
          <mxGeometry x="140" y="190" width="130" height="20" as="geometry" />
        </mxCell>
        <mxCell id="uXTuELQXPpplIUTR7Xs5-10" value="" style="html=1;shadow=0;dashed=0;align=center;verticalAlign=middle;shape=mxgraph.arrows2.arrow;dy=0.6;dx=40;notch=0;rotation=-59;" vertex="1" parent="1">
          <mxGeometry x="430" y="200" width="100" height="20" as="geometry" />
        </mxCell>
        <mxCell id="uXTuELQXPpplIUTR7Xs5-11" value="CUD events for tasks" style="text;html=1;align=center;verticalAlign=middle;resizable=0;points=[];autosize=1;strokeColor=none;fillColor=none;" vertex="1" parent="1">
          <mxGeometry x="480" y="210" width="130" height="20" as="geometry" />
        </mxCell>
        <mxCell id="uXTuELQXPpplIUTR7Xs5-12" value="" style="html=1;shadow=0;dashed=0;align=center;verticalAlign=middle;shape=mxgraph.arrows2.arrow;dy=0.6;dx=40;notch=0;rotation=-59;" vertex="1" parent="1">
          <mxGeometry x="450" y="270" width="100" height="20" as="geometry" />
        </mxCell>
        <mxCell id="uXTuELQXPpplIUTR7Xs5-13" value="BE for tasks" style="text;html=1;align=center;verticalAlign=middle;resizable=0;points=[];autosize=1;strokeColor=none;fillColor=none;" vertex="1" parent="1">
          <mxGeometry x="505" y="280" width="80" height="20" as="geometry" />
        </mxCell>
        <mxCell id="uXTuELQXPpplIUTR7Xs5-14" value="" style="html=1;shadow=0;dashed=0;align=center;verticalAlign=middle;shape=mxgraph.arrows2.arrow;dy=0.6;dx=40;notch=0;" vertex="1" parent="1">
          <mxGeometry x="645" y="100" width="100" height="20" as="geometry" />
        </mxCell>
        <mxCell id="uXTuELQXPpplIUTR7Xs5-15" value="BE for Account" style="text;html=1;align=center;verticalAlign=middle;resizable=0;points=[];autosize=1;strokeColor=none;fillColor=none;" vertex="1" parent="1">
          <mxGeometry x="640" y="80" width="90" height="20" as="geometry" />
        </mxCell>
      </root>
    </mxGraphModel>
  </diagram>
</mxfile>
